<svg width="24" height="24" viewBox="0 0 24 24" fill="none" xmlns="http://www.w3.org/2000/svg">
<path d="M6 8C5 8 5 8 5 9C4.44772 9 4 8.55228 4 8C4 7.44772 4.44772 7 5 7C5.55228 7 6 7.44772 6 8Z" fill="#8E8E8E"/>
<line x1="5" y1="7.5" x2="18" y2="7.5" stroke="#8E8E8E"/>
<line x1="17.5" y1="18" x2="17.5" y2="8" stroke="#8E8E8E"/>
<line x1="4.5" y1="8" x2="4.5" y2="22" stroke="#8E8E8E"/>
<path d="M6 22C5.5 22.5 5.5 22.5 5 23C4.44772 23 4 22.5523 4 22C4 21.4477 4.44772 22 5 22C5.55228 22 6 21.4477 6 22Z" fill="#8E8E8E"/>
<path d="M4.67991 22.6159L10.5 17.5" stroke="#8E8E8E"/>
<path d="M10.5 17.5L18 17.5" stroke="#8E8E8E"/>
<circle cx="10.5" cy="17.5" r="0.5" fill="#8E8E8E"/>
<line x1="6" y1="14.5" x2="11" y2="14.5" stroke="#8E8E8E"/>
<line x1="6" y1="11.5" x2="16" y2="11.5" stroke="#8E8E8E"/>
</svg>
