<svg width="24" height="24" viewBox="0 0 24 24" fill="none" xmlns="http://www.w3.org/2000/svg">
<g filter="url(#filter0_d_2_58)">
<mask id="path-1-inside-1_2_58" fill="white">
<path d="M18 7.5C18 6.57174 17.6313 5.6815 16.9749 5.02513C16.3185 4.36875 15.4283 4 14.5 4C13.5717 4 12.6815 4.36875 12.0251 5.02513C11.3687 5.6815 11 6.57174 11 7.5L11.7 7.5C11.7 6.75739 11.995 6.0452 12.5201 5.5201C13.0452 4.995 13.7574 4.7 14.5 4.7C15.2426 4.7 15.9548 4.995 16.4799 5.5201C17.005 6.0452 17.3 6.75739 17.3 7.5H18Z"/>
</mask>
<path d="M18 7.5C18 6.57174 17.6313 5.6815 16.9749 5.02513C16.3185 4.36875 15.4283 4 14.5 4C13.5717 4 12.6815 4.36875 12.0251 5.02513C11.3687 5.6815 11 6.57174 11 7.5L11.7 7.5C11.7 6.75739 11.995 6.0452 12.5201 5.5201C13.0452 4.995 13.7574 4.7 14.5 4.7C15.2426 4.7 15.9548 4.995 16.4799 5.5201C17.005 6.0452 17.3 6.75739 17.3 7.5H18Z" fill="#8E8E8E"/>
<path d="M18 7.5C18 6.57174 17.6313 5.6815 16.9749 5.02513C16.3185 4.36875 15.4283 4 14.5 4C13.5717 4 12.6815 4.36875 12.0251 5.02513C11.3687 5.6815 11 6.57174 11 7.5L11.7 7.5C11.7 6.75739 11.995 6.0452 12.5201 5.5201C13.0452 4.995 13.7574 4.7 14.5 4.7C15.2426 4.7 15.9548 4.995 16.4799 5.5201C17.005 6.0452 17.3 6.75739 17.3 7.5H18Z" stroke="#8E8E8E" stroke-width="2" mask="url(#path-1-inside-1_2_58)"/>
</g>
<g filter="url(#filter1_d_2_58)">
<path d="M11 7.5C11 6.57174 10.6313 5.6815 9.97487 5.02513C9.3185 4.36875 8.42826 4 7.5 4C6.57174 4 5.6815 4.36875 5.02513 5.02513C4.36875 5.6815 4 6.57174 4 7.5L4.7 7.5C4.7 6.75739 4.995 6.0452 5.5201 5.5201C6.0452 4.995 6.75739 4.7 7.5 4.7C8.24261 4.7 8.9548 4.995 9.4799 5.5201C10.005 6.0452 10.3 6.75739 10.3 7.5H11Z" fill="#8E8E8E"/>
</g>
<path d="M4.34087 7.27267L11 18" stroke="#8E8E8E" stroke-width="0.8"/>
<path d="M17.6456 7.28166L11 18" stroke="#8E8E8E" stroke-width="0.8"/>
<path d="M11.5013 18C11.5013 18 11.5013 18 11.0013 19C10.5013 18 10.5013 18 10.5013 18C10.5013 17.4477 10.449 17 11.0013 17C11.5536 17 11.5013 17.4477 11.5013 18Z" fill="#8E8E8E"/>
<path d="M10.5 7C9.99999 7.5 10.4477 8 11 8C11.5523 8 12 7.5 11.5 7C11.5 6.44771 11.5523 7.5 11 7.5C10.4477 7.5 10.5 6.44771 10.5 7Z" fill="#8E8E8E"/>
<defs>
<filter id="filter0_d_2_58" x="7" y="4" width="15" height="11.5" filterUnits="userSpaceOnUse" color-interpolation-filters="sRGB">
<feFlood flood-opacity="0" result="BackgroundImageFix"/>
<feColorMatrix in="SourceAlpha" type="matrix" values="0 0 0 0 0 0 0 0 0 0 0 0 0 0 0 0 0 0 127 0" result="hardAlpha"/>
<feOffset dy="4"/>
<feGaussianBlur stdDeviation="2"/>
<feComposite in2="hardAlpha" operator="out"/>
<feColorMatrix type="matrix" values="0 0 0 0 0 0 0 0 0 0 0 0 0 0 0 0 0 0 0.25 0"/>
<feBlend mode="normal" in2="BackgroundImageFix" result="effect1_dropShadow_2_58"/>
<feBlend mode="normal" in="SourceGraphic" in2="effect1_dropShadow_2_58" result="shape"/>
</filter>
<filter id="filter1_d_2_58" x="0" y="4" width="15" height="11.5" filterUnits="userSpaceOnUse" color-interpolation-filters="sRGB">
<feFlood flood-opacity="0" result="BackgroundImageFix"/>
<feColorMatrix in="SourceAlpha" type="matrix" values="0 0 0 0 0 0 0 0 0 0 0 0 0 0 0 0 0 0 127 0" result="hardAlpha"/>
<feOffset dy="4"/>
<feGaussianBlur stdDeviation="2"/>
<feComposite in2="hardAlpha" operator="out"/>
<feColorMatrix type="matrix" values="0 0 0 0 0 0 0 0 0 0 0 0 0 0 0 0 0 0 0.25 0"/>
<feBlend mode="normal" in2="BackgroundImageFix" result="effect1_dropShadow_2_58"/>
<feBlend mode="normal" in="SourceGraphic" in2="effect1_dropShadow_2_58" result="shape"/>
</filter>
</defs>
</svg>
