<svg width="24" height="24" viewBox="0 0 24 24" fill="none" xmlns="http://www.w3.org/2000/svg">
<g filter="url(#filter0_d_2_58)">
<mask id="path-1-inside-1_2_58" fill="white">
<path d="M18 7.5C18 6.57174 17.6313 5.6815 16.9749 5.02513C16.3185 4.36875 15.4283 4 14.5 4C13.5717 4 12.6815 4.36875 12.0251 5.02513C11.3687 5.6815 11 6.57174 11 7.5L11.7 7.5C11.7 6.75739 11.995 6.0452 12.5201 5.5201C13.0452 4.995 13.7574 4.7 14.5 4.7C15.2426 4.7 15.9548 4.995 16.4799 5.5201C17.005 6.0452 17.3 6.75739 17.3 7.5H18Z"/>
</mask>
<path d="M18 7.5C18 6.57174 17.6313 5.6815 16.9749 5.02513C16.3185 4.36875 15.4283 4 14.5 4C13.5717 4 12.6815 4.36875 12.0251 5.02513C11.3687 5.6815 11 6.57174 11 7.5L11.7 7.5C11.7 6.75739 11.995 6.0452 12.5201 5.5201C13.0452 4.995 13.7574 4.7 14.5 4.7C15.2426 4.7 15.9548 4.995 16.4799 5.5201C17.005 6.0452 17.3 6.75739 17.3 7.5H18Z" fill="#8E8E8E"/>
<path d="M18 7.5C18 6.57174 17.6313 5.6815 16.9749 5.02513C16.3185 4.36875 15.4283 4 14.5 4C13.5717 4 12.6815 4.36875 12.0251 5.02513C11.3687 5.6815 11 6.57174 11 7.5L11.7 7.5C11.7 6.75739 11.995 6.0452 12.5201 5.5201C13.0452 4.995 13.7574 4.7 14.5 4.7C15.2426 4.7 15.9548 4.995 16.4799 5.5201C17.005 6.0452 17.3 6.75739 17.3 7.5H18Z" stroke="#B8B8FF" stroke-width="2" mask="url(#path-1-inside-1_2_58)"/>
</g>
<g filter="url(#filter1_d_2_58)">
<path d="M11 7.5C11 6.57174 10.6313 5.6815 9.97487 5.02513C9.3185 4.36875 8.42826 4 7.5 4C6.57174 4 5.6815 4.36875 5.02513 5.02513C4.36875 5.6815 4 6.57174 4 7.5L4.7 7.5C4.7 6.75739 4.995 6.0452 5.5201 5.5201C6.0452 4.995 6.75739 4.7 7.5 4.7C8.24261 4.7 8.9548 4.995 9.4799 5.5201C10.005 6.0452 10.3 6.75739 10.3 7.5H11Z" fill="#B8B8FF"/>
</g>
<path d="M4.34087 7.27267L11 18" stroke="#B8B8FF" stroke-width="0.8"/>
<path d="M17.6456 7.28166L11 18" stroke="#B8B8FF" stroke-width="0.8"/>
<path d="M11.5013 18C11.5013 18 11.5013 18 11.0013 19C10.5013 18 10.5013 18 10.5013 18C10.5013 17.4477 10.449 17 11.0013 17C11.5536 17 11.5013 17.4477 11.5013 18Z" fill="#B8B8FF"/>
<path d="M10.5 7C9.99999 7.5 10.4477 8 11 8C11.5523 8 12 7.5 11.5 7C11.5 6.44771 11.5523 7.5 11 7.5C10.4477 7.5 10.5 6.44771 10.5 7Z" fill="#B8B8FF"/>
<path d="M11 8H11.5V7.5L12 6.5V7L11.5 6.5L12.5 5.5L13 5L15 4.5L14 5H15.5L16.5 5.5L17.5 6.5L17 7L16.5 8L13.5 13L12 16L11 17H10.5L7 11L5.75 9.25M11 8H10.5H10V7V6.5L9.5 5.5L8.5 5L7 4.5L6 5L5 6.5L4.5 7.5L5.75 9.25M11 8V16.5M5.75 9.25H15.8912" stroke="#B8B8FF" stroke-width="0.5"/>
<path d="M10 7L10.5 8V8.5M15.5 9L16 8M15.5 9L12 8.75M15.5 9L15 10M16.5 7L16.25 7.5M16.5 7H12M16.5 7L16.9491 6.55092M13.5 5L15 5.5H15.5M13.5 5L14 5.5M13.5 5L13 5.5M12 6.5L12.5 6L13 5.5M12 6.5L13 6M12 6.5L16.9491 6.55092M14 5.5L13 6M14 5.5L16.25 5.91751M13.5 5.5H13M14 5L13 6M13 6L16.6395 6.13948M14.5 6V5.5L13.5 6L12.5 6.5L12 7M12 7V7.5M12 7.5V8M12 7.5H16.25M12 8V8.5V8.75M12 8H16M5.5 6L5 6.5V7.5H10H4.5M5.5 6L6 5.66667M5.5 6V8M5.5 6H9M15.5 5.5H16L16.6395 6.13948M15.5 5.5V8.5H10.5M16 8L16.25 7.5M16.9491 6.55092L17 6.5V7.5L17.5 7L16.6395 6.13948M7.5 5L6.25 5.5M7.5 5L7.09799 5.66667L7 5.65179M7.5 5H8M7.5 5L6.5 7M6.25 5.5L9 9.5H6V6.55092M6.25 5.5L6 5.66667M6.25 5.5L6.5 7M6 5.66667V6.55092M9.5 6.5V6H9M9.5 6.5V8M9.5 6.5L9 6.50727M6 6.55092L9 6.50727M7 4.5V5.65179M10.5 8.5V10V17L11.5 16L13.5 13L14.5 11M10.5 8.5L10 9H8.5M10.5 8.5H8M12 8.75V9V15H9.5V9.5M12 8.75L11 9M9.5 8H5.5M9.5 8V9.5M5.5 8V8.5H8M6.5 9V7M6.25 5.1898L7 5L6 5.5L7 5.65179M7 5.65179V9H8.43213M7 5.65179L9.5 5.5H8.5L8 5M8 5L7.5 5.5V11.5M7.5 11.5H14L14.75 10M7.5 11.5L7.14286 11M8 8.5L7.88635 6.13948L8.5 7L5 8L6.78571 10.5M8.43213 5.91751V9M8.43213 9H8.5M9 6L8.5 9M9.20835 5.66667L9.5 9.5M9.5 9.5H15M9 6.50727V10H6.5H13M15 10H14.75M15 10L14.5 11M13 13.5V10M13 10H14.5H14.75M14.5 10.5H14M6.78571 10.5L7.14286 11M6.78571 10.5H13.5M8 11H14M14 11H7.14286M14 11L13.5 10.5M14.5 11L14 10.5M14 10.5H13.5" stroke="#B8B8FF" stroke-width="0.5"/>
<path d="M8 12H14H7.5L13.5 12.5H8H14L8 13H14L8.5 13.5M8.5 13.5H13L11.833 13.6459M8.5 13.5L11.3012 14.1225M13 14L11.833 13.6459M11.833 13.6459L11.1568 13.7304M11.1568 13.7304L12.5 14.5V14L11.1568 15.5L11.678 14.3348M11.1568 13.7304L10.0784 13.8652M11.678 14.3348L13 14.5L11.3012 14.1225M11.678 14.3348L9.69864 14.0873M11.5 16L11.3012 14.1225M10 16L10.0784 13.8652M10.0784 13.8652L9 14L9.69864 14.0873M9.69864 14.0873L10 15" stroke="#B8B8FF" stroke-width="0.5"/>
<defs>
<filter id="filter0_d_2_58" x="7" y="4" width="15" height="11.5" filterUnits="userSpaceOnUse" color-interpolation-filters="sRGB">
<feFlood flood-opacity="0" result="BackgroundImageFix"/>
<feColorMatrix in="SourceAlpha" type="matrix" values="0 0 0 0 0 0 0 0 0 0 0 0 0 0 0 0 0 0 127 0" result="hardAlpha"/>
<feOffset dy="4"/>
<feGaussianBlur stdDeviation="2"/>
<feComposite in2="hardAlpha" operator="out"/>
<feColorMatrix type="matrix" values="0 0 0 0 0 0 0 0 0 0 0 0 0 0 0 0 0 0 0.25 0"/>
<feBlend mode="normal" in2="BackgroundImageFix" result="effect1_dropShadow_2_58"/>
<feBlend mode="normal" in="SourceGraphic" in2="effect1_dropShadow_2_58" result="shape"/>
</filter>
<filter id="filter1_d_2_58" x="0" y="4" width="15" height="11.5" filterUnits="userSpaceOnUse" color-interpolation-filters="sRGB">
<feFlood flood-opacity="0" result="BackgroundImageFix"/>
<feColorMatrix in="SourceAlpha" type="matrix" values="0 0 0 0 0 0 0 0 0 0 0 0 0 0 0 0 0 0 127 0" result="hardAlpha"/>
<feOffset dy="4"/>
<feGaussianBlur stdDeviation="2"/>
<feComposite in2="hardAlpha" operator="out"/>
<feColorMatrix type="matrix" values="0 0 0 0 0 0 0 0 0 0 0 0 0 0 0 0 0 0 0.25 0"/>
<feBlend mode="normal" in2="BackgroundImageFix" result="effect1_dropShadow_2_58"/>
<feBlend mode="normal" in="SourceGraphic" in2="effect1_dropShadow_2_58" result="shape"/>
</filter>
</defs>
</svg>
