<svg width="94" height="92" viewBox="0 0 94 92" fill="none" xmlns="http://www.w3.org/2000/svg">
<rect width="94" height="92" fill="#1E1E1E"/>
<ellipse cx="47" cy="48.4615" rx="33.5455" ry="36.3462" fill="#865D1F"/>
<path d="M47 0L54.5992 33.1408L90.3636 34.3496L83.0962 60.0677H47H10.9038L3.63636 34.3496L37.501 33.1408L47 0Z" fill="black"/>
<path d="M15.8353 57.1154C-1.18119 75.2019 1.01033 86.5745 4.23315 90H21.6364" stroke="black" stroke-width="3"/>
<path d="M31.7155 57.1154C13.281 75.2019 15.6551 86.5745 19.1465 90H38" stroke="black" stroke-width="2"/>
<path d="M44.6203 57.1154C30.4399 75.2019 32.2662 86.5745 34.9519 90H49.4545" stroke="black"/>
<path d="M44.6203 57.1154C30.4399 75.2019 32.2662 86.5745 34.9519 90H49.4545" stroke="black" stroke-width="4"/>
<path d="M48.2267 57.1154C63.8252 75.2019 61.8163 86.5745 58.862 90H42.9091" stroke="black" stroke-width="4"/>
<path d="M63.9209 57.1154C82.3554 75.2019 79.9812 86.5745 76.4899 90H57.6364" stroke="black" stroke-width="2"/>
<path d="M79.3176 57.1154C94.9161 75.2019 92.9072 86.5745 89.9529 90H74" stroke="black" stroke-width="3"/>
<path d="M38.792 50.108C38.136 50.108 37.572 50.004 37.1 49.796C36.628 49.588 36.272 49.316 36.032 48.98C35.8 48.636 35.684 48.268 35.684 47.876C35.684 47.436 35.876 47.2 36.26 47.168C36.26 47.976 36.468 48.572 36.884 48.956C37.3 49.34 37.944 49.532 38.816 49.532C39.608 49.532 40.232 49.38 40.688 49.076C41.144 48.772 41.372 48.352 41.372 47.816C41.372 47.48 41.292 47.204 41.132 46.988C40.972 46.764 40.7 46.576 40.316 46.424C39.932 46.264 39.396 46.12 38.708 45.992C37.692 45.8 36.96 45.52 36.512 45.152C36.072 44.784 35.852 44.288 35.852 43.664C35.852 42.992 36.12 42.464 36.656 42.08C37.192 41.688 37.92 41.492 38.84 41.492C39.36 41.492 39.84 41.58 40.28 41.756C40.728 41.932 41.084 42.176 41.348 42.488C41.612 42.8 41.744 43.152 41.744 43.544C41.744 43.976 41.56 44.216 41.192 44.264C41.192 43.512 40.98 42.956 40.556 42.596C40.132 42.228 39.532 42.044 38.756 42.044C38.052 42.044 37.5 42.188 37.1 42.476C36.7 42.756 36.5 43.136 36.5 43.616C36.5 43.936 36.568 44.208 36.704 44.432C36.848 44.648 37.088 44.836 37.424 44.996C37.76 45.148 38.228 45.284 38.828 45.404C39.628 45.564 40.256 45.748 40.712 45.956C41.168 46.156 41.496 46.404 41.696 46.7C41.896 46.996 41.996 47.368 41.996 47.816C41.996 48.528 41.708 49.088 41.132 49.496C40.564 49.904 39.784 50.108 38.792 50.108ZM43.6123 41.9C43.6123 41.82 43.6403 41.752 43.6963 41.696C43.7603 41.632 43.8363 41.6 43.9243 41.6H49.2043C49.2043 41.968 49.0043 42.152 48.6043 42.152H44.2243V45.488H47.7643C47.7643 45.864 47.5603 46.052 47.1523 46.052H44.2243V49.448H48.8563C49.2483 49.448 49.4443 49.632 49.4443 50H43.9243C43.8363 50 43.7603 49.972 43.6963 49.916C43.6403 49.852 43.6123 49.776 43.6123 49.688V41.9ZM51.0655 41.9C51.0655 41.82 51.0935 41.752 51.1495 41.696C51.2135 41.632 51.2895 41.6 51.3775 41.6H56.6575C56.6575 41.776 56.6055 41.912 56.5015 42.008C56.3975 42.104 56.2455 42.152 56.0455 42.152H51.6775V45.428H55.2175C55.2175 45.804 55.0135 45.992 54.6055 45.992H51.6775V49.448C51.6775 49.656 51.6215 49.82 51.5095 49.94C51.4055 50.052 51.2575 50.108 51.0655 50.108V41.9Z" fill="#7B611F"/>
</svg>
